<svg width="95" height="88" viewBox="0 0 95 88" fill="none" xmlns="http://www.w3.org/2000/svg">
<path d="M42.04 30.3138L63.1068 51.3807" stroke="white" stroke-width="7.33173"/>
<path d="M29.4 62.6162L30.652 41.3315C30.7487 39.6876 31.5618 38.169 32.8763 37.1771L75.0876 5.32434C76.0624 4.58877 77.2503 4.19086 78.4715 4.19086H85.0164C88.1191 4.19086 90.6343 6.70604 90.6343 9.80868V14.8194C90.6343 16.12 90.183 17.3803 89.3575 18.3853L53.6951 61.8004C52.5498 63.1947 50.8044 63.954 49.0036 63.8414L29.4 62.6162Z" stroke="white" stroke-width="7.33173"/>
<path d="M37.8267 17.9536H11.4515C7.40228 17.9536 4.11975 21.2361 4.11975 25.2853V76.6312C4.11975 80.6804 7.40228 83.963 11.4515 83.963H71.2241C75.2733 83.963 78.5559 80.6804 78.5559 76.6312V50.256" stroke="white" stroke-width="7.33173"/>
</svg>
