<svg width="69" height="59" viewBox="0 0 69 59" fill="none" xmlns="http://www.w3.org/2000/svg">
<path d="M12.9517 2.03448C12.9517 0.910869 11.9284 0 10.6661 0C9.40378 0 8.38049 0.910869 8.38049 2.03448V7.45977L2.28559 7.45977C1.02329 7.45977 0 8.37064 0 9.49425C0 10.6179 1.02329 11.5287 2.28559 11.5287H8.38049V16.954C8.38049 18.0776 9.40378 18.9885 10.6661 18.9885C11.9284 18.9885 12.9517 18.0776 12.9517 16.954V11.5287L19.0466 11.5287C20.3089 11.5287 21.3321 10.6179 21.3321 9.49425C21.3321 8.37064 20.3089 7.45977 19.0466 7.45977H12.9517V2.03448Z" fill="white"/>
<path fill-rule="evenodd" clip-rule="evenodd" d="M39.559 1.92764C40.2345 -0.167747 43.5703 -0.167747 44.2458 1.92764L50.0527 19.9404L67.333 25.0677C69.5557 25.7272 69.5557 28.5257 67.333 29.1852L50.0527 34.3125L44.2458 52.3252C43.5703 54.4206 40.2345 54.4206 39.559 52.3252L33.7522 34.3125L16.4719 29.1852C14.2492 28.5257 14.2492 25.7272 16.4719 25.0677L33.7522 19.9404L39.559 1.92764ZM41.9024 9.41048L37.8361 22.0241C37.6144 22.7118 37.0262 23.258 36.2637 23.4843L23.9886 27.1264L36.2637 30.7686C37.0262 30.9948 37.6144 31.5411 37.8361 32.2288L41.9024 44.8424L45.9687 32.2288C46.1904 31.5411 46.7787 30.9948 47.5412 30.7686L59.8162 27.1264L47.5412 23.4843C46.7787 23.258 46.1904 22.7118 45.9687 22.0241L41.9024 9.41048Z" fill="white"/>
<path d="M20.5703 44.0805C21.8326 44.0805 22.8559 44.9913 22.8559 46.1149V49.5057H26.6652C27.9275 49.5057 28.9508 50.4166 28.9508 51.5402C28.9508 52.6638 27.9275 53.5747 26.6652 53.5747H22.8559V56.9655C22.8559 58.0891 21.8326 59 20.5703 59C19.308 59 18.2847 58.0891 18.2847 56.9655V53.5747H14.4754C13.2131 53.5747 12.1898 52.6638 12.1898 51.5402C12.1898 50.4166 13.2131 49.5057 14.4754 49.5057H18.2847V46.1149C18.2847 44.9913 19.308 44.0805 20.5703 44.0805Z" fill="white"/>
</svg>
