<svg width="24" height="24" viewBox="0 0 24 24" fill="none" xmlns="http://www.w3.org/2000/svg">
<path fill-rule="evenodd" clip-rule="evenodd" d="M10 3C6.13401 3 3 6.13401 3 10C3 13.866 6.13401 17 10 17C13.866 17 17 13.866 17 10C17 6.13401 13.866 3 10 3ZM2 10C2 5.58172 5.58172 2 10 2C14.4183 2 18 5.58172 18 10C18 14.4183 14.4183 18 10 18C5.58172 18 2 14.4183 2 10Z" fill="white"/>
<path fill-rule="evenodd" clip-rule="evenodd" d="M15.1464 15.1464C15.3417 14.9512 15.6583 14.9512 15.8536 15.1464L21.8536 21.1464C22.0488 21.3417 22.0488 21.6583 21.8536 21.8536C21.6583 22.0488 21.3417 22.0488 21.1464 21.8536L15.1464 15.8536C14.9512 15.6583 14.9512 15.3417 15.1464 15.1464Z" fill="white"/>
</svg>
