<svg width="86" height="86" viewBox="0 0 86 86" fill="none" xmlns="http://www.w3.org/2000/svg">
<mask id="path-1-inside-1_101_2" fill="white">
<path fill-rule="evenodd" clip-rule="evenodd" d="M32.3558 2.78537C32.3558 1.77476 33.175 0.955505 34.1856 0.955505H52.1183C53.1289 0.955505 53.9482 1.77476 53.9482 2.78537V8.72424C53.9482 9.51233 54.4545 10.2073 55.1923 10.4845C56.0391 10.8025 56.8702 11.1527 57.6841 11.5335C58.4052 11.8708 59.2654 11.7409 59.8283 11.178L63.9993 7.007C64.7139 6.29239 65.8725 6.29239 66.5871 7.00699L79.2674 19.6873C79.9821 20.4019 79.9821 21.5605 79.2674 22.2751L74.9995 26.543C74.442 27.1005 74.3088 27.9505 74.6351 28.6683C74.9555 29.3729 75.253 30.0901 75.5268 30.819C75.8039 31.5568 76.4989 32.0631 77.287 32.0631L83.2259 32.0631C84.2365 32.0631 85.0558 32.8824 85.0558 33.893V51.8257C85.0558 52.8363 84.2365 53.6555 83.2259 53.6555H77.422C76.6264 53.6555 75.9266 54.1714 75.6548 54.9192C75.3034 55.886 74.9103 56.8329 74.4778 57.7576C74.1404 58.4786 74.2703 59.3388 74.8332 59.9017L79.0042 64.0727C79.7188 64.7873 79.7188 65.9459 79.0042 66.6605L66.3239 79.3408C65.6093 80.0554 64.4507 80.0554 63.736 79.3408L59.4682 75.073C58.9107 74.5154 58.0607 74.3822 57.343 74.7085C56.6383 75.0289 55.9211 75.3264 55.1923 75.6002C54.4546 75.8773 53.9482 76.5723 53.9482 77.3604V83.2993C53.9482 84.3099 53.1289 85.1292 52.1183 85.1292H34.1856C33.175 85.1292 32.3558 84.3099 32.3558 83.2993V77.4955C32.3558 76.6999 31.8399 76 31.0921 75.7283C30.2438 75.42 29.4109 75.0796 28.5948 74.7085C27.8771 74.3822 27.0271 74.5154 26.4696 75.073L22.3355 79.2071C21.6209 79.9217 20.4623 79.9217 19.7477 79.2071L7.06737 66.5268C6.35276 65.8122 6.35276 64.6536 7.06737 63.939L11.1046 59.9018C11.6675 59.3388 11.7974 58.4786 11.46 57.7576C11.0274 56.8329 10.6344 55.886 10.283 54.9192C10.0112 54.1714 9.31137 53.6555 8.51575 53.6555H2.71194C1.70134 53.6555 0.88208 52.8363 0.88208 51.8257L0.882081 33.893C0.882081 32.8824 1.70134 32.0631 2.71194 32.0631H8.65078C9.43888 32.0631 10.1339 31.5568 10.411 30.819C10.6848 30.0901 10.9823 29.3729 11.3027 28.6682C11.629 27.9505 11.4958 27.1005 10.9382 26.543L6.80409 22.4088C6.08948 21.6942 6.08948 20.5356 6.80409 19.821L19.4844 7.14072C20.199 6.42612 21.3576 6.42612 22.0722 7.14072L26.1095 11.178C26.6724 11.7409 27.5326 11.8708 28.2537 11.5335C29.1784 11.1009 30.1252 10.7078 31.0921 10.3564C31.8399 10.0846 32.3558 9.38476 32.3558 8.58914V2.78537Z"/>
</mask>
<path d="M26.1095 11.178L20.9285 16.359L26.1095 11.178ZM28.2537 11.5335L25.1489 4.89676L28.2537 11.5335ZM19.4844 7.14072L14.3034 1.95974L19.4844 7.14072ZM6.80409 22.4088L1.6231 27.5898L6.80409 22.4088ZM6.80409 19.821L1.6231 14.64L6.80409 19.821ZM11.3027 28.6682L4.63266 25.6357L11.3027 28.6682ZM10.9382 26.543L16.1192 21.362L10.9382 26.543ZM10.283 54.9192L3.39666 57.422L10.283 54.9192ZM11.1046 59.9018L5.92358 54.7208L11.1046 59.9018ZM11.46 57.7576L18.0967 54.6528L11.46 57.7576ZM7.06737 66.5268L12.2484 61.3458L7.06737 66.5268ZM7.06737 63.939L1.88638 58.758L7.06737 63.939ZM22.3355 79.2071L17.1545 74.0261L22.3355 79.2071ZM19.7477 79.2071L14.5667 84.3881L19.7477 79.2071ZM28.5948 74.7085L31.6274 68.0385L28.5948 74.7085ZM31.0921 75.7283L28.5894 82.6146L31.0921 75.7283ZM55.1923 75.6002L57.7687 82.4593L55.1923 75.6002ZM59.4682 75.073L64.6492 69.892L59.4682 75.073ZM57.343 74.7085L60.3755 81.3786L57.343 74.7085ZM63.736 79.3408L58.5551 84.5218L63.736 79.3408ZM79.0042 64.0727L84.1852 58.8917L79.0042 64.0727ZM74.4778 57.7576L67.8411 54.6528L74.4778 57.7576ZM74.8332 59.9017L80.0142 54.7208L74.8332 59.9017ZM75.6548 54.9192L82.5411 57.422L75.6548 54.9192ZM83.2259 32.0631V39.3902V32.0631ZM75.5268 30.819L82.3859 28.2426L75.5268 30.819ZM77.287 32.0631V24.7361V32.0631ZM74.9995 26.543L69.8186 21.362L74.9995 26.543ZM74.6351 28.6683L67.9651 31.7008L74.6351 28.6683ZM79.2674 19.6873L84.4484 14.5063L79.2674 19.6873ZM63.9993 7.007L58.8183 1.82601L63.9993 7.007ZM66.5871 7.00699L61.4062 12.188L66.5871 7.00699ZM57.6841 11.5335L54.5793 18.1701L57.6841 11.5335ZM59.8283 11.178L65.0093 16.359L59.8283 11.178ZM55.1923 10.4845L57.7687 3.62533L55.1923 10.4845ZM52.1183 -6.37152H34.1856V8.28253H52.1183V-6.37152ZM61.2752 8.72424V2.78537H46.6211V8.72424H61.2752ZM52.6159 17.3436C53.2829 17.5941 53.9378 17.87 54.5793 18.1701L60.7889 4.89677C59.8026 4.43536 58.7953 4.01093 57.7687 3.62533L52.6159 17.3436ZM58.8183 1.82601L54.6473 5.997L65.0093 16.359L69.1803 12.188L58.8183 1.82601ZM84.4484 14.5063L71.7681 1.82601L61.4062 12.188L74.0865 24.8683L84.4484 14.5063ZM80.1805 31.724L84.4484 27.4561L74.0865 17.0941L69.8186 21.362L80.1805 31.724ZM67.9651 31.7008C68.2176 32.2561 68.452 32.8212 68.6677 33.3953L82.3859 28.2426C82.054 27.359 81.6934 26.4897 81.3051 25.6357L67.9651 31.7008ZM83.2259 24.7361L77.287 24.7361V39.3902L83.2259 39.3902L83.2259 24.7361ZM92.3828 51.8257V33.893H77.7287V51.8257H92.3828ZM77.422 60.9825H83.2259V46.3285H77.422V60.9825ZM68.7685 52.4164C68.4917 53.1779 68.182 53.9239 67.8411 54.6528L81.1144 60.8623C81.6386 59.7418 82.1151 58.5942 82.5411 57.422L68.7685 52.4164ZM84.1852 58.8917L80.0142 54.7208L69.6522 65.0827L73.8232 69.2537L84.1852 58.8917ZM71.5049 84.5218L84.1852 71.8415L73.8232 61.4795L61.1429 74.1598L71.5049 84.5218ZM54.2872 80.254L58.5551 84.5218L68.917 74.1598L64.6492 69.892L54.2872 80.254ZM54.3104 68.0385C53.7551 68.291 53.19 68.5254 52.6159 68.7411L57.7687 82.4593C58.6523 82.1274 59.5216 81.7668 60.3755 81.3786L54.3104 68.0385ZM61.2752 83.2993V77.3604H46.6211V83.2993H61.2752ZM34.1856 92.4562H52.1183V77.8022H34.1856V92.4562ZM25.0288 77.4955V83.2993H39.6828V77.4955H25.0288ZM33.5949 68.842C32.9268 68.5991 32.2705 68.3309 31.6274 68.0385L25.5623 81.3786C26.5513 81.8282 27.5609 82.2408 28.5894 82.6146L33.5949 68.842ZM27.5165 84.3881L31.6506 80.254L21.2886 69.892L17.1545 74.0261L27.5165 84.3881ZM1.88638 71.7078L14.5667 84.3881L24.9287 74.0261L12.2484 61.3458L1.88638 71.7078ZM5.92358 54.7208L1.88638 58.758L12.2484 69.1199L16.2856 65.0827L5.92358 54.7208ZM18.0967 54.6528C17.7557 53.9239 17.4461 53.1779 17.1693 52.4164L3.39666 57.422C3.82268 58.5942 4.29915 59.7418 4.82335 60.8623L18.0967 54.6528ZM2.71194 60.9825H8.51575V46.3285H2.71194V60.9825ZM-6.44494 33.893L-6.44494 51.8257H8.2091L8.20911 33.893H-6.44494ZM8.65078 24.7361H2.71194V39.3902H8.65078V24.7361ZM17.2701 33.3953C17.4858 32.8212 17.7202 32.2561 17.9727 31.7008L4.63266 25.6357C4.24442 26.4897 3.88376 27.359 3.55187 28.2426L17.2701 33.3953ZM1.6231 27.5898L5.75726 31.724L16.1192 21.362L11.9851 17.2279L1.6231 27.5898ZM14.3034 1.95974L1.6231 14.64L11.9851 25.002L24.6654 12.3217L14.3034 1.95974ZM31.2905 5.997L27.2532 1.95974L16.8912 12.3217L20.9285 16.359L31.2905 5.997ZM31.3584 18.1701C32.0873 17.8292 32.8334 17.5195 33.5949 17.2427L28.5894 3.47004C27.4171 3.89607 26.2694 4.37255 25.1489 4.89676L31.3584 18.1701ZM25.0288 2.78537V8.58914H39.6828V2.78537H25.0288ZM33.5949 17.2427C37.0827 15.9751 39.6828 12.6292 39.6828 8.58914H25.0288C25.0288 6.1403 26.5971 4.1941 28.5894 3.47004L33.5949 17.2427ZM20.9285 16.359C23.7867 19.2172 27.9944 19.7439 31.3584 18.1701L25.1489 4.89676C27.0708 3.99763 29.5581 4.2646 31.2905 5.997L20.9285 16.359ZM24.6654 12.3217C22.5186 14.4685 19.038 14.4685 16.8912 12.3217L27.2532 1.95974C23.6772 -1.61625 17.8794 -1.61625 14.3034 1.95974L24.6654 12.3217ZM11.9851 17.2279C14.1318 19.3746 14.1319 22.8552 11.9851 25.002L1.6231 14.64C-1.9529 18.216 -1.95288 24.0139 1.6231 27.5898L11.9851 17.2279ZM17.9727 31.7008C19.4956 28.3511 18.9498 24.1926 16.1192 21.362L5.75726 31.724C4.0417 30.0084 3.7624 27.5499 4.63266 25.6357L17.9727 31.7008ZM8.65078 39.3902C12.6522 39.3902 15.9771 36.8377 17.2701 33.3953L3.55187 28.2426C4.29062 26.2758 6.22554 24.7361 8.65078 24.7361V39.3902ZM8.20911 33.893C8.2091 36.929 5.74794 39.3902 2.71194 39.3902V24.7361C-2.34526 24.7361 -6.44494 28.8358 -6.44494 33.893H8.20911ZM2.71194 46.3285C5.74793 46.3285 8.2091 48.7896 8.2091 51.8257H-6.44494C-6.44494 56.8829 -2.34525 60.9825 2.71194 60.9825V46.3285ZM17.1693 52.4164C15.9017 48.9286 12.5558 46.3285 8.51575 46.3285V60.9825C6.06692 60.9825 4.12072 59.4142 3.39666 57.422L17.1693 52.4164ZM16.2856 65.0827C19.1438 62.2245 19.6705 58.0169 18.0967 54.6528L4.82335 60.8623C3.92422 58.9404 4.19118 56.4532 5.92358 54.7208L16.2856 65.0827ZM12.2484 61.3458C14.3951 63.4926 14.3951 66.9732 12.2484 69.1199L1.88638 58.758C-1.6896 62.334 -1.68961 68.1318 1.88638 71.7078L12.2484 61.3458ZM17.1545 74.0261C19.3013 71.8793 22.7819 71.8793 24.9287 74.0261L14.5667 84.3881C18.1427 87.9641 23.9405 87.964 27.5165 84.3881L17.1545 74.0261ZM31.6274 68.0385C28.2777 66.5156 24.1192 67.0614 21.2886 69.892L31.6506 80.254C29.935 81.9695 27.4764 82.2488 25.5623 81.3786L31.6274 68.0385ZM39.6828 77.4955C39.6828 73.4555 37.0827 70.1096 33.5949 68.842L28.5894 82.6146C26.5971 81.8905 25.0288 79.9443 25.0288 77.4955H39.6828ZM34.1856 77.8022C37.2216 77.8022 39.6828 80.2633 39.6828 83.2993H25.0288C25.0288 88.3565 29.1284 92.4562 34.1856 92.4562V77.8022ZM46.6211 83.2993C46.6211 80.2633 49.0823 77.8022 52.1183 77.8022V92.4562C57.1755 92.4562 61.2752 88.3565 61.2752 83.2993H46.6211ZM52.6159 68.7411C49.1736 70.034 46.6211 73.3589 46.6211 77.3604H61.2752C61.2752 79.7856 59.7355 81.7206 57.7687 82.4593L52.6159 68.7411ZM64.6492 69.892C61.8186 67.0614 57.6601 66.5156 54.3104 68.0385L60.3755 81.3786C58.4613 82.2488 56.0028 81.9695 54.2872 80.254L64.6492 69.892ZM61.1429 74.1598C63.2896 72.013 66.7703 72.013 68.917 74.1598L58.5551 84.5218C62.1311 88.0978 67.9289 88.0978 71.5049 84.5218L61.1429 74.1598ZM73.8232 69.2537C71.6764 67.1069 71.6764 63.6263 73.8232 61.4795L84.1852 71.8415C87.7612 68.2655 87.7611 62.4677 84.1852 58.8917L73.8232 69.2537ZM67.8411 54.6528C66.2673 58.0169 66.794 62.2245 69.6522 65.0827L80.0142 54.7208C81.7466 56.4531 82.0136 58.9404 81.1144 60.8623L67.8411 54.6528ZM77.422 46.3285C73.382 46.3285 70.0361 48.9286 68.7685 52.4164L82.5411 57.422C81.8171 59.4142 79.8709 60.9825 77.422 60.9825V46.3285ZM77.7287 51.8257C77.7287 48.7897 80.1899 46.3285 83.2259 46.3285V60.9825C88.2831 60.9825 92.3828 56.8829 92.3828 51.8257H77.7287ZM83.2259 39.3902C80.1899 39.3902 77.7287 36.929 77.7287 33.893H92.3828C92.3828 28.8358 88.2831 24.7361 83.2259 24.7361L83.2259 39.3902ZM68.6677 33.3953C69.9606 36.8377 73.2856 39.3902 77.287 39.3902V24.7361C79.7123 24.7361 81.6472 26.2758 82.3859 28.2426L68.6677 33.3953ZM69.8186 21.362C66.988 24.1926 66.4422 28.3511 67.9651 31.7008L81.3051 25.6357C82.1754 27.5499 81.8961 30.0084 80.1805 31.724L69.8186 21.362ZM74.0865 24.8683C71.9397 22.7215 71.9397 19.2409 74.0865 17.0941L84.4484 27.4561C88.0244 23.8801 88.0244 18.0823 84.4484 14.5063L74.0865 24.8683ZM69.1803 12.188C67.0335 14.3348 63.5529 14.3348 61.4062 12.188L71.7681 1.82601C68.1921 -1.74999 62.3943 -1.74997 58.8183 1.82601L69.1803 12.188ZM54.5793 18.1701C57.9434 19.7439 62.1511 19.2172 65.0093 16.359L54.6473 5.997C56.3798 4.26458 58.867 3.99765 60.7889 4.89677L54.5793 18.1701ZM46.6211 8.72424C46.6211 12.7257 49.1736 16.0506 52.6159 17.3436L57.7687 3.62533C59.7355 4.36409 61.2752 6.29901 61.2752 8.72424H46.6211ZM34.1856 -6.37152C29.1284 -6.37152 25.0288 -2.27183 25.0288 2.78537H39.6828C39.6828 5.82136 37.2217 8.28253 34.1856 8.28253V-6.37152ZM52.1183 8.28253C49.0823 8.28253 46.6211 5.82137 46.6211 2.78537H61.2752C61.2752 -2.27184 57.1755 -6.37152 52.1183 -6.37152V8.28253Z" fill="white" mask="url(#path-1-inside-1_101_2)"/>
<circle cx="43.1518" cy="42.8593" r="13.7202" stroke="white" stroke-width="7.32702"/>
</svg>
