<svg width="90" height="76" viewBox="0 0 90 76" fill="none" xmlns="http://www.w3.org/2000/svg">
<circle cx="34.0548" cy="16.5032" r="11.9141" stroke="white" stroke-width="7.33173"/>
<mask id="path-2-inside-1_101_17" fill="white">
<path fill-rule="evenodd" clip-rule="evenodd" d="M67.8747 75.1569C67.9339 74.249 67.9641 73.3321 67.9641 72.4075C67.9641 51.6553 52.7824 34.8323 34.0548 34.8323C15.3272 34.8323 0.145508 51.6553 0.145508 72.4075C0.145508 73.3321 0.175648 74.249 0.234899 75.1569H67.8747Z"/>
</mask>
<path d="M67.8747 75.1569V82.4886H74.7435L75.1908 75.6343L67.8747 75.1569ZM0.234899 75.1569L-7.08127 75.6343L-6.63395 82.4886H0.234899V75.1569ZM75.1908 75.6343C75.2605 74.5676 75.2958 73.4915 75.2958 72.4075H60.6323C60.6323 73.1728 60.6074 73.9304 60.5585 74.6794L75.1908 75.6343ZM75.2958 72.4075C75.2958 48.3323 57.5215 27.5006 34.0548 27.5006V42.1641C48.0433 42.1641 60.6323 54.9783 60.6323 72.4075H75.2958ZM34.0548 27.5006C10.5881 27.5006 -7.18623 48.3323 -7.18623 72.4075H7.47724C7.47724 54.9783 20.0663 42.1641 34.0548 42.1641V27.5006ZM-7.18623 72.4075C-7.18623 73.4915 -7.15089 74.5676 -7.08127 75.6343L7.55107 74.6794C7.50219 73.9304 7.47724 73.1728 7.47724 72.4075H-7.18623ZM0.234899 82.4886H67.8747V67.8251H0.234899V82.4886Z" fill="white" mask="url(#path-2-inside-1_101_17)"/>
<path d="M60.3008 20.3026C65.4915 12.1296 73.4628 18.3361 74.4884 22.0328C76.2122 18.3361 83.7692 11.7834 89.022 20.6486C93.625 28.4173 80.8324 38.4119 74.4884 41.7569C66.6448 37.6045 56.1252 26.8773 60.3008 20.3026Z" fill="white"/>
</svg>
